<?xml version="1.0" encoding="utf-8"?>
<!-- Generator: Adobe Illustrator 23.1.0, SVG Export Plug-In . SVG Version: 6.00 Build 0)  -->
<svg version="1.1" id="Layer_1" xmlns="http://www.w3.org/2000/svg" xmlns:xlink="http://www.w3.org/1999/xlink" x="0px" y="0px"
	 viewBox="-72 -72 400 400" enable-background="new -72 -72 400 400" xml:space="preserve">
<g>
	<path fill="#FFD9C0" d="M326.871,46.469c-0.885-19.35-3.768-34.387-9.353-48.755c-5.499-14.152-12.704-25.215-23.362-35.871
		c-10.655-10.657-21.719-17.861-35.87-23.36c-14.369-5.585-29.406-8.47-48.755-9.353c-21.122-0.963-28.141-1.191-81.532-1.191
		c-53.391,0-60.409,0.228-81.531,1.191c-19.348,0.883-34.384,3.767-48.756,9.353c-14.151,5.5-25.214,12.704-35.871,23.36
		c-10.657,10.657-17.861,21.72-23.36,35.87c-5.585,14.368-8.47,29.405-9.353,48.757c-0.963,21.105-1.19,28.12-1.19,81.53
		c0,53.411,0.227,60.426,1.19,81.532c0.884,19.351,3.769,34.388,9.353,48.755c5.498,14.15,12.703,25.213,23.36,35.871
		c10.656,10.657,21.719,17.862,35.871,23.361c14.371,5.585,29.408,8.469,48.756,9.353c21.085,0.962,28.097,1.19,81.531,1.19
		c53.435,0,60.446-0.228,81.532-1.19c19.349-0.885,34.386-3.769,48.755-9.353c14.151-5.499,25.215-12.703,35.87-23.361
		c10.659-10.658,17.864-21.721,23.362-35.871c5.585-14.368,8.468-29.405,9.353-48.755c0.964-21.121,1.191-28.14,1.191-81.532
		C328.063,74.608,327.835,67.59,326.871,46.469z M127.999,287.283c-52.642,0-58.878-0.199-79.672-1.148
		c-18.873-0.861-29.068-3.994-35.843-6.627c-8.852-3.438-15.17-7.547-21.808-14.184c-6.635-6.636-10.744-12.954-14.185-21.808
		c-2.633-6.775-5.766-16.971-6.626-35.843c-0.948-20.76-1.148-26.99-1.148-79.674c0-52.681,0.2-58.911,1.148-79.672
		c0.861-18.872,3.993-29.068,6.626-35.843c3.44-8.854,7.55-15.172,14.185-21.807c6.636-6.636,12.955-10.746,21.808-14.186
		c6.775-2.632,16.972-5.764,35.842-6.625c20.764-0.948,26.995-1.148,79.673-1.148c52.679,0,58.91,0.2,79.674,1.148
		c18.875,0.861,29.068,3.993,35.842,6.625c8.853,3.44,15.172,7.55,21.81,14.187c6.631,6.63,10.741,12.948,14.184,21.807
		c2.633,6.773,5.766,16.969,6.625,35.842c0.949,20.753,1.148,26.983,1.148,79.673c0,52.692-0.199,58.922-1.148,79.673
		c-0.859,18.874-3.992,29.069-6.625,35.843c-3.442,8.858-7.553,15.177-14.184,21.809c-6.641,6.637-12.959,10.747-21.811,14.184
		c-6.771,2.633-16.965,5.766-35.841,6.627C186.878,287.084,180.643,287.283,127.999,287.283z"/>
	<path fill="#FFD9C0" d="M127.999,24.001c-57.345,0-104,46.654-104,103.999c0,57.347,46.654,104.002,104,104.002
		c57.347,0,104-46.655,104-104.002C231.999,70.655,185.346,24.001,127.999,24.001z M127.999,191.221
		c-34.859,0-63.22-28.359-63.22-63.221c0-34.859,28.36-63.22,63.22-63.22s63.22,28.36,63.22,63.22
		C191.219,162.861,162.858,191.221,127.999,191.221z"/>
	<path fill="#FFD9C0" d="M259.701,22.594c0-14.5-11.796-26.295-26.297-26.295c-14.499,0-26.294,11.796-26.294,26.295
		c0,14.5,11.795,26.297,26.294,26.297C247.905,48.891,259.701,37.095,259.701,22.594z"/>
</g>
</svg>
