<?xml version="1.0" encoding="utf-8"?>
<!-- Generator: Adobe Illustrator 23.1.0, SVG Export Plug-In . SVG Version: 6.00 Build 0)  -->
<svg version="1.1" id="Layer_1" xmlns="http://www.w3.org/2000/svg" xmlns:xlink="http://www.w3.org/1999/xlink" x="0px" y="0px"
	 viewBox="0 0 219.762 219.857" enable-background="new 0 0 219.762 219.857" xml:space="preserve">
<path fill="#FFD9C0" d="M68.038,132.632c6.125,7.081,12.78,13.693,19.903,19.779c18.452,15.764,46.026,14.382,63.185-2.781l0,0
	c3.315-3.316,8.227-4.421,12.524-2.947c8.536,2.82,17.497,4.836,26.708,5.96c16.186,1.974,29.404,17.136,29.404,33.445l0,0
	c0,20.797-16.916,35.994-37.559,33.502C87.122,208.112,11.742,132.716,0.267,37.614C-2.224,16.967,12.97,0.048,33.762,0.048h0.115
	c16.295,0,31.471,13.209,33.437,29.389c1.122,9.233,3.141,18.174,5.968,26.735c1.351,4.298,0.368,9.088-3.07,12.527l-0.008,0.008
	C52.786,86.128,51.921,113.999,68.038,132.632z"/>
</svg>
