<?xml version="1.0" encoding="utf-8"?>
<!-- Generator: Adobe Illustrator 23.1.0, SVG Export Plug-In . SVG Version: 6.00 Build 0)  -->
<svg version="1.1" xmlns="http://www.w3.org/2000/svg" xmlns:xlink="http://www.w3.org/1999/xlink" x="0px" y="0px"
	 viewBox="0 0 1145.7 815.9" style="enable-background:new 0 0 1145.7 815.9;" xml:space="preserve">
<style type="text/css">
	.st0{display:none;}
	.st1{display:inline;}
	.st2{fill:url(#SVGID_1_);}
	.st3{fill:#FFFFFF;}
	.st4{display:inline;fill:#A6D3DD;}
	.st5{display:inline;fill:#8BC0CC;}
	.st6{fill:#289358;}
	.st7{fill:#1E7A45;}
	.st8{fill:#7F4F38;}
	.st9{fill:#0D7057;}
	.st10{fill:#703C28;}
	.st11{fill:#602E1E;}
	.st12{fill:#08513C;}
	.st13{fill:#CAE5FF;}
	.st14{opacity:0.5;fill:#FFFFFF;enable-background:new    ;}
	.st15{fill:#6D1700;}
	.st16{fill:#A0341C;}
	.st17{fill:#262626;}
	.st18{fill:#C67A2E;}
	.st19{fill:#111111;}
	.st20{fill:url(#SVGID_2_);}
	.st21{opacity:0.4;fill:#111111;enable-background:new    ;}
	.st22{fill:#442920;}
	.st23{fill:#553529;}
	.st24{fill:#FFD9C0;}
	.st25{fill:#FFECE1;}
	.st26{fill:#E2B59C;}
	.st27{fill:#3F5362;}
	.st28{fill:#658494;}
	.st29{fill:none;stroke:#B58862;stroke-width:3;stroke-linecap:round;stroke-miterlimit:10;}
	.st30{fill:none;stroke:#8E2419;stroke-width:2;stroke-linecap:round;stroke-miterlimit:10;}
	.st31{fill:none;stroke:#F7E0D0;stroke-width:3;stroke-miterlimit:10;}
</style>
<g id="Layer_1">
	<g class="st0">
		<g class="st1">
			<g>
				
					<linearGradient id="SVGID_1_" gradientUnits="userSpaceOnUse" x1="1986.55" y1="-1526.0675" x2="1986.55" y2="-2245.6675" gradientTransform="matrix(1 0 0 1 -72 2583.7676)">
					<stop  offset="0" style="stop-color:#DCEAF7"/>
					<stop  offset="1" style="stop-color:#C1DDF7"/>
				</linearGradient>
				<rect x="1333.4" y="338.1" class="st2" width="1162.3" height="719.6"/>
			</g>
			<path class="st3" d="M2420.4,586.9c0,1.9-2.7,3.1-6,3.1H2277c-3.3,0-6.4-1.2-6.4-3.1v-5.7c0-1.9,3.1-3.8,6.4-3.8h137.4
				c3.3,0,6,1.8,6,3.8V586.9L2420.4,586.9z"/>
			<path class="st3" d="M2472.3,601.6c0,1.9-4.9,3.5-10.8,3.5H2212c-6,0-10.9-1.6-10.9-3.5v-5.7c0-1.9,4.9-3.4,10.9-3.4h249.4
				c6,0,10.8,1.4,10.8,3.4v5.7H2472.3z"/>
			<path class="st3" d="M2406.2,572.2c0,1.5-2.5,2.7-5.6,2.7h-72.4c-3.1,0-5.6-1.2-5.6-2.7v-8c0-1.5,2.5-2.7,5.6-2.7h72.4
				c3.1,0,5.6,1.2,5.6,2.7V572.2z"/>
			<path class="st3" d="M1761,590.1c0,3.6-2.9,6.6-6.6,6.6h-340.8c-3.6,0-6.6-2.9-6.6-6.6v-0.2c0-3.6,2.9-6.6,6.6-6.6h340.8
				c3.6,0,6.6,2.9,6.6,6.6L1761,590.1L1761,590.1z"/>
			<path class="st3" d="M1823,574.2c0,2.7-3.8,4.9-8.4,4.9h-255.1c-4.7,0-8.5-2.2-8.5-4.9v-1.8c0-2.7,3.8-4.9,8.5-4.9h255.1
				c4.7,0,8.4,2.2,8.4,4.9V574.2L1823,574.2z"/>
			<path class="st3" d="M1789.5,557.1c0,2.5-2,4.4-4.5,4.4h-104c-2.5,0-4.5-2-4.5-4.4v-5c0-2.5,2-4.8,4.5-4.8h104
				c2.5,0,4.5,2.3,4.5,4.8V557.1L1789.5,557.1z"/>
			<path class="st3" d="M1420.5,656.9c0,3.7-3,6.7-6.7,6.7h-32.6c-3.7,0-6.7-3-6.7-6.7v-3.3c0-3.7,3-6.7,6.7-6.7h32.6
				c3.7,0,6.7,3,6.7,6.7V656.9z"/>
			<path class="st3" d="M1839.7,501.4c0,3.6-2.9,6.5-6.6,6.5h-13.7c-3.6,0-6.5-2.9-6.5-6.5v-0.3c0-3.6,2.9-6.5,6.5-6.5h13.7
				c3.6,0,6.6,2.9,6.6,6.5V501.4z"/>
			<path class="st3" d="M1860.6,503.8c0,2.3-1.9,4.2-4.2,4.2l0,0c-2.3,0-4.2-1.9-4.2-4.2v-5c0-2.3,1.9-4.2,4.2-4.2l0,0
				c2.3,0,4.2,1.9,4.2,4.2V503.8z"/>
			<path class="st3" d="M2024.6,501.3c0,3.7-3,6.7-6.7,6.7h-121.3c-3.7,0-6.7-3-6.7-6.7l0,0c0-3.7,3-6.7,6.7-6.7h121.3
				C2021.6,494.6,2024.6,497.6,2024.6,501.3L2024.6,501.3z"/>
			<path class="st3" d="M2003.7,484.6c0,3.2-2.6,5.9-5.9,5.9h-68.6c-3.2,0-5.9-2.6-5.9-5.9l0,0c0-3.2,2.6-5.9,5.9-5.9h68.6
				C2001.1,478.7,2003.7,481.3,2003.7,484.6L2003.7,484.6z"/>
		</g>
		<polygon class="st4" points="1631.5,963.6 1631.5,938.4 1607.6,938.4 1607.6,929.6 1591.2,929.6 1591.2,910.8 1578.6,910.1 
			1578.6,919.6 1564.8,919.6 1564.8,884.3 1557.2,884.3 1557.2,868 1559.7,868 1560,865.4 1553.5,865.4 1553.5,857.9 1532.1,857.9 
			1532.1,865.4 1523.2,865.4 1523.2,857.9 1519.5,857.9 1519.5,865.4 1514.4,865.4 1514.4,857.9 1510.7,857.9 1510.7,865.4 
			1501.8,865.4 1501.8,868 1504.4,868 1504.4,907 1472.9,907 1472.9,840.3 1471.6,840.3 1471.6,834 1470.4,834 1470.4,818.9 
			1469.1,818.9 1469.1,834 1467.9,834 1467.9,822.6 1466.6,822.6 1466.6,834 1462.8,834 1462.8,839 1457.8,839 1457.8,963.6 		"/>
		<polygon class="st5" points="1430.1,963.6 1430.1,949.8 1449,949.8 1449,928.4 1466.6,928.4 1466.6,952.3 1481.7,953.6 
			1481.7,933.4 1503.1,933.4 1503.1,901.9 1525.8,901.9 1525.8,941 1553.5,941.4 1553.5,889.4 1562.3,889.4 1562.3,886.8 
			1572.3,886.8 1572.3,888.1 1576.1,889.4 1576.1,904.5 1597.5,904 1597.5,929.6 1608.8,930.5 1608.8,856.6 1622.7,856.6 
			1622.7,860.4 1641.6,860 1641.6,954.8 1641.6,963.6 		"/>
		<polygon class="st4" points="2440.9,963.6 2440.9,938.4 2417,938.4 2417,929.6 2400.6,929.6 2400.6,910.8 2388,910.1 2388,919.6 
			2374.2,919.6 2374.2,884.3 2366.6,884.3 2366.6,868 2369.1,868 2369.3,865.4 2362.8,865.4 2362.8,857.9 2341.4,857.9 
			2341.4,865.4 2332.6,865.4 2332.6,857.9 2328.8,857.9 2328.8,865.4 2323.8,865.4 2323.8,857.9 2320,857.9 2320,865.4 
			2311.2,865.4 2311.2,868 2313.7,868 2313.7,907 2282.3,907 2282.3,840.3 2281,840.3 2281,834 2279.8,834 2279.8,818.9 
			2278.5,818.9 2278.5,834 2277.2,834 2277.2,822.6 2276,822.6 2276,834 2272.2,834 2272.2,839 2267.2,839 2267.2,963.6 		"/>
		<polygon class="st5" points="2451,963.6 2451,949.8 2432.1,949.8 2432.1,928.4 2414.4,928.4 2414.4,952.3 2399.3,953.6 
			2399.3,933.4 2377.9,933.4 2377.9,901.9 2355.3,901.9 2355.3,941 2327.6,941.4 2327.6,889.4 2318.8,889.4 2318.8,886.8 
			2308.7,886.8 2308.7,888.1 2304.9,889.4 2304.9,904.5 2283.5,904 2283.5,929.6 2272.2,930.5 2272.2,856.6 2258.4,856.6 
			2258.4,860.4 2239.5,860 2239.5,954.8 2239.5,963.6 		"/>
		<g class="st1">
			<path class="st6" d="M1875.2,976.2c-64.8-3.4-362.9-37.3-398,5.4c-8.7,10.6-17.4,33.5,21.9,70.5c39.3,36.9,242.2,5.9,354.1-1.7
				c98.6-6.7,331.2,21.2,427.7,4.3c42.4-7.4,154.3-87.5,55.2-90.8C2186.1,958.9,2025.3,972.3,1875.2,976.2z"/>
			<path class="st7" d="M1880.1,985.2c-57.7-1.7-323.3-19-354.6,2.8c-7.7,5.4-15.5,17.1,19.5,35.9s215.8,3,315.5-0.9
				c87.9-3.4,295.1,10.8,381.1,2.2c37.7-3.8,130.5-42.2,42.2-43.9C2150.1,978.7,2013.8,983.2,1880.1,985.2z"/>
		</g>
		<g class="st1">
			<path class="st8" d="M1540.7,990.9c0,0,11.6-175.9-17.5-280.7s-73.4-158.5-73.4-158.5l18.4-9.3c0,0,63.3,33.2,93.2,139
				c29.9,105.7,53.9,311.5,53.9,311.5L1540.7,990.9z"/>
			<path class="st9" d="M1409.7,549.2c0,0-76.8-42-134.3,6.7c-57.5,48.8-77.4,127.4-77.4,127.4s69-79,108.1-93.6
				C1345.1,575,1409.7,549.2,1409.7,549.2z"/>
			<path class="st9" d="M1415.2,555.2c0,0-83.5,3.8-97.6,110.1c-14.1,106.2,30.3,169,30.3,169s-1.8-84.4,14.3-176
				C1378.4,566.5,1415.2,555.2,1415.2,555.2z"/>
			<path class="st9" d="M1479.9,521.9c0,0,72.4-15,129.8-5.5c38.1,6.3,39.7,61.1,38.9,98.3c-0.3,14.1-17-41.8-54.5-62
				C1556.6,532.4,1479.9,521.9,1479.9,521.9z"/>
			<path class="st9" d="M1440.5,513.6c0,0-73.7-54.8-55-138.9s74.5-57.7,83.5-55.3c0,0-44.9,45.9-44.3,89.6
				C1425.2,452.7,1440.5,513.6,1440.5,513.6z"/>
			<path class="st9" d="M1460.1,507.7c0,0,25.1-90.3,77.1-110.3c52-20.1,113.6,27,113.6,27s-61.1,3.4-93.5,18.3
				C1501.1,468.7,1460.1,507.7,1460.1,507.7z"/>
			<path class="st9" d="M1418.4,516.8c0,0-81.9-87.4-142.4-97.4s-152.1,42-157.1,81.9c0,0,86.4-19,148.1-13.9
				C1306.2,490.7,1418.4,516.8,1418.4,516.8z"/>
			<path class="st10" d="M1434.3,501.4c-25.8,7.6-31.7,41.5-24.2,50.3s45.1,5.2,55.1-3.9c10-9.1,23.2-30.8,11.9-42.8
				C1465.9,493,1434.3,501.4,1434.3,501.4z"/>
			<path class="st11" d="M1415.5,552.9c0,0,25.4-5.8,35.5-12.6s26.6-20,26.6-20s-5,23.7-16.9,28
				C1448.8,552.6,1433.7,556.6,1415.5,552.9z"/>
			<path class="st12" d="M1397.4,547.7c0,0-49.9-18-82.6-7.5s7.3,5.9,30.3,7.5C1368.2,549.4,1397.4,547.7,1397.4,547.7z"/>
			<path class="st12" d="M1386.1,494.6c0,0-24.3-25.9-43.5-33.9s-40.2-8-40.2-8s21.8,6.5,37.3,14.7S1386.1,494.6,1386.1,494.6z"/>
			<path class="st12" d="M1384.9,568.7c0,0-23.7,9.2-32.5,28.9s-5.6,36-5.6,36s6.1-28.4,18.8-42.2
				C1377.2,578.5,1384.9,568.7,1384.9,568.7z"/>
			<path class="st12" d="M1480,478.4c0,0,1.5-26.8,17.7-39.6c16.2-12.8,53-20.6,53-20.6s-21.2,13.4-43,29.6
				C1486,463.9,1480,478.4,1480,478.4z"/>
			<path class="st12" d="M1534,521.7c0,0,51-7,70.6,2.8c19.5,9.8,18.8,27.4,18.8,27.4s-10.2-17.2-30.8-21.5
				C1571.9,526,1534,521.7,1534,521.7z"/>
			<path class="st12" d="M1421.8,395.3c0,0-25.7,26.9-15.1,54.7c10.6,27.8,24,44.6,24,44.6s-12-24-12.4-59.7
				S1421.8,395.3,1421.8,395.3z"/>
			<path class="st11" d="M1536.2,739.4c0,0,18.8,25.4,27.3,98.3c7.7,66.1,2.3,140.2,2.3,140.2l-18.5,6.3c0,0,7.8-39.6,0.8-135.6
				C1541.3,753.2,1536.2,739.4,1536.2,739.4z"/>
		</g>
		<g class="st1">
			<rect x="1635.5" y="710.5" class="st13" width="619.2" height="288.7"/>
			<g>
				<polygon class="st14" points="1812.1,731.4 1662.1,948.1 1648.7,977 1804.1,753.6 				"/>
				<polygon class="st14" points="1743.6,873.3 1696.1,942.7 1694.1,955.7 1740.6,887.5 				"/>
			</g>
			<polygon class="st14" points="2165.3,723.2 1966.9,898.3 1927.2,942.7 2144,751.8 			"/>
			<polygon class="st14" points="2108.6,804.7 1984.6,930 2056.9,872.1 			"/>
			<g>
				<rect x="1602.9" y="706.3" class="st15" width="32.6" height="292.9"/>
				<rect x="1601.2" y="703" class="st16" width="34.3" height="13.4"/>
				<rect x="1601.2" y="717.2" class="st16" width="11.7" height="14.2"/>
				<rect x="1614.6" y="717.2" class="st16" width="22.6" height="14.2"/>
				<rect x="1601.2" y="732.3" class="st16" width="34.3" height="14.2"/>
				<rect x="1601.2" y="748.1" class="st16" width="11.7" height="12.6"/>
				<rect x="1614.6" y="748.1" class="st16" width="22.6" height="12.6"/>
				<rect x="1601.2" y="761.5" class="st16" width="34.3" height="15.1"/>
				<rect x="1601.2" y="777.4" class="st16" width="11.7" height="12.6"/>
				<rect x="1614.6" y="777.4" class="st16" width="22.6" height="12.6"/>
				<rect x="1601.2" y="791.7" class="st16" width="34.3" height="13.4"/>
				<rect x="1601.2" y="807.6" class="st16" width="11.7" height="12.6"/>
				<rect x="1614.6" y="807.6" class="st16" width="22.6" height="12.6"/>
				<rect x="1601.2" y="821.8" class="st16" width="34.3" height="13.4"/>
				<rect x="1601.2" y="837.7" class="st16" width="11.7" height="12.6"/>
				<rect x="1614.6" y="837.7" class="st16" width="22.6" height="12.6"/>
				<rect x="1601.2" y="851.9" class="st16" width="34.3" height="13.4"/>
				<rect x="1601.2" y="866.1" class="st16" width="11.7" height="14.2"/>
				<rect x="1614.6" y="866.1" class="st16" width="22.6" height="14.2"/>
				<rect x="1601.2" y="882" class="st16" width="34.3" height="12.6"/>
				<rect x="1601.2" y="896.3" class="st16" width="11.7" height="13.4"/>
				<rect x="1614.6" y="896.3" class="st16" width="22.6" height="13.4"/>
				<rect x="1601.2" y="911.3" class="st16" width="34.3" height="13.4"/>
				<rect x="1601.2" y="925.5" class="st16" width="11.7" height="13.4"/>
				<rect x="1614.6" y="925.5" class="st16" width="22.6" height="13.4"/>
				<rect x="1601.2" y="941.5" class="st16" width="34.3" height="13.4"/>
				<rect x="1601.2" y="955.7" class="st16" width="11.7" height="14.2"/>
				<rect x="1614.6" y="955.7" class="st16" width="22.6" height="14.2"/>
				<rect x="1601.2" y="970.7" class="st16" width="34.3" height="14.2"/>
				<rect x="1601.2" y="985.8" class="st16" width="11.7" height="13.4"/>
				<rect x="1614.6" y="985.8" class="st16" width="22.6" height="13.4"/>
			</g>
			<g>
				<rect x="2254.7" y="706.3" class="st15" width="32.6" height="292.9"/>
				<rect x="2254.7" y="701.3" class="st16" width="33.5" height="14.2"/>
				<rect x="2277.3" y="717.2" class="st16" width="10.9" height="14.2"/>
				<rect x="2253.1" y="717.2" class="st16" width="22.6" height="14.2"/>
				<rect x="2254.7" y="732.3" class="st16" width="33.5" height="14.2"/>
				<rect x="2277.3" y="748.1" class="st16" width="10.9" height="12.6"/>
				<rect x="2253.1" y="748.1" class="st16" width="22.6" height="12.6"/>
				<rect x="2254.7" y="761.5" class="st16" width="33.5" height="15.1"/>
				<rect x="2277.3" y="777.4" class="st16" width="10.9" height="12.6"/>
				<rect x="2253.1" y="777.4" class="st16" width="22.6" height="12.6"/>
				<rect x="2254.7" y="791.7" class="st16" width="33.5" height="13.4"/>
				<rect x="2277.3" y="807.6" class="st16" width="10.9" height="12.6"/>
				<rect x="2253.1" y="807.6" class="st16" width="22.6" height="12.6"/>
				<rect x="2254.7" y="821.8" class="st16" width="33.5" height="13.4"/>
				<rect x="2277.3" y="837.7" class="st16" width="10.9" height="12.6"/>
				<rect x="2253.1" y="837.7" class="st16" width="22.6" height="12.6"/>
				<rect x="2254.7" y="851.9" class="st16" width="33.5" height="13.4"/>
				<rect x="2277.3" y="866.1" class="st16" width="10.9" height="14.2"/>
				<rect x="2253.1" y="866.1" class="st16" width="22.6" height="14.2"/>
				<rect x="2254.7" y="882" class="st16" width="33.5" height="12.6"/>
				<rect x="2277.3" y="896.3" class="st16" width="10.9" height="13.4"/>
				<rect x="2253.1" y="896.3" class="st16" width="22.6" height="13.4"/>
				<rect x="2254.7" y="911.3" class="st16" width="33.5" height="13.4"/>
				<rect x="2277.3" y="925.5" class="st16" width="10.9" height="13.4"/>
				<rect x="2253.1" y="925.5" class="st16" width="22.6" height="13.4"/>
				<rect x="2254.7" y="941.5" class="st16" width="33.5" height="13.4"/>
				<rect x="2277.3" y="955.7" class="st16" width="10.9" height="14.2"/>
				<rect x="2253.1" y="955.7" class="st16" width="22.6" height="14.2"/>
				<rect x="2254.7" y="970.7" class="st16" width="33.5" height="14.2"/>
				<rect x="2277.3" y="985.8" class="st16" width="10.9" height="13.4"/>
				<rect x="2253.1" y="985.8" class="st16" width="22.6" height="13.4"/>
			</g>
			<g>
				<rect x="1842.2" y="706.3" class="st15" width="47.7" height="292.9"/>
				<rect x="1839.7" y="701.3" class="st16" width="51.9" height="14.2"/>
				<rect x="1874" y="716.4" class="st16" width="17.6" height="14.2"/>
				<rect x="1839.7" y="716.4" class="st16" width="32.6" height="14.2"/>
				<rect x="1839.7" y="731.4" class="st16" width="51.9" height="14.2"/>
				<rect x="1874" y="747.3" class="st16" width="17.6" height="12.6"/>
				<rect x="1839.7" y="747.3" class="st16" width="32.6" height="12.6"/>
				<rect x="1839.7" y="760.7" class="st16" width="51.9" height="15.1"/>
				<rect x="1874" y="776.6" class="st16" width="17.6" height="12.6"/>
				<rect x="1839.7" y="776.6" class="st16" width="32.6" height="12.6"/>
				<rect x="1839.7" y="791.7" class="st16" width="51.9" height="13.4"/>
				<rect x="1874" y="806.7" class="st16" width="17.6" height="12.6"/>
				<rect x="1839.7" y="806.7" class="st16" width="32.6" height="12.6"/>
				<rect x="1839.7" y="821" class="st16" width="51.9" height="13.4"/>
				<rect x="1874" y="836.8" class="st16" width="17.6" height="12.6"/>
				<rect x="1839.7" y="836.8" class="st16" width="32.6" height="12.6"/>
				<rect x="1839.7" y="851.1" class="st16" width="51.9" height="13.4"/>
				<rect x="1874" y="866.1" class="st16" width="17.6" height="14.2"/>
				<rect x="1839.7" y="866.1" class="st16" width="32.6" height="14.2"/>
				<rect x="1839.7" y="881.2" class="st16" width="51.9" height="12.6"/>
				<rect x="1874" y="896.3" class="st16" width="17.6" height="13.4"/>
				<rect x="1839.7" y="896.3" class="st16" width="32.6" height="13.4"/>
				<rect x="1839.7" y="911.3" class="st16" width="51.9" height="13.4"/>
				<rect x="1874" y="926.4" class="st16" width="17.6" height="13.4"/>
				<rect x="1839.7" y="926.4" class="st16" width="32.6" height="13.4"/>
				<rect x="1839.7" y="940.6" class="st16" width="51.9" height="13.4"/>
				<rect x="1874" y="955.7" class="st16" width="17.6" height="14.2"/>
				<rect x="1839.7" y="955.7" class="st16" width="32.6" height="14.2"/>
				<rect x="1839.7" y="970.7" class="st16" width="51.9" height="14.2"/>
				<rect x="1874" y="985.8" class="st16" width="17.6" height="13.4"/>
				<rect x="1839.7" y="985.8" class="st16" width="32.6" height="13.4"/>
			</g>
			<polygon class="st17" points="1533.2,711.5 1892.1,570.7 1975.2,570.7 2333.2,711.8 			"/>
			<ellipse class="st18" cx="1933.2" cy="646.6" rx="93.8" ry="51.6"/>
			<path class="st19" d="M1592.4,701.3l195.6-72.2c0,0-30.8,18.2-19.1,36.1c11.7,17.8,54.2,31.3,54.2,31.3L1592.4,701.3z"/>
			<path class="st19" d="M2021.8,698.8c0,0,51-6.9,57.4-20.4S2075,635,2075,635l198.8,63.7L2021.8,698.8L2021.8,698.8z"/>
			<polygon class="st19" points="1622.1,951.2 1582,983.4 1582,1030.5 1622.1,999 			"/>
			<polygon class="st14" points="1622.1,842.5 1582,856.4 1582,983.9 1622.1,951.7 			"/>
			
				<linearGradient id="SVGID_2_" gradientUnits="userSpaceOnUse" x1="2358.5901" y1="-2286.6729" x2="2358.5901" y2="-2207.373" gradientTransform="matrix(1 0 0 1 -72.04 3237.873)">
				<stop  offset="0" style="stop-color:#000000"/>
				<stop  offset="5.640000e-02" style="stop-color:#030303"/>
				<stop  offset="0.4735" style="stop-color:#171717"/>
				<stop  offset="0.7581" style="stop-color:#1E1E1E"/>
			</linearGradient>
			<polygon class="st20" points="2271.5,951.2 2301.6,983.4 2301.6,1030.5 2271.5,999 			"/>
			<rect x="1792.8" y="983.3" class="st19" width="508.8" height="46.9"/>
			<rect x="1792.8" y="856.1" class="st14" width="508.8" height="127.2"/>
			<rect x="1582" y="983.3" class="st19" width="58.6" height="46.9"/>
			<rect x="1582" y="856.1" class="st14" width="58.6" height="127.2"/>
			<path class="st21" d="M1930.3,596.3c0,0,30.2,2.8,61.2,22.8s26.6,46,26.6,46s24.1-28.6-19.8-52.8
				C1962.6,592.6,1930.3,596.3,1930.3,596.3z"/>
			<polygon class="st14" points="2271.5,845.2 2301.6,855.9 2301.6,983.5 2271.5,951.2 			"/>
		</g>
	</g>
	<g>
		<g>
			<rect x="872.2" y="330" class="st22" width="43.4" height="339.2"/>
			<rect x="915.6" y="330" class="st23" width="230.1" height="339.2"/>
			<path class="st24" d="M886.9,329.9c19.7-32.9,67.5-56.2,123.2-56.2c55.8,0,103.5,23.2,123.2,56.2H886.9z"/>
			<g>
				<polygon class="st24" points="988.8,329.9 915.6,350.1 915.6,341.4 957.2,329.9 				"/>
				<polygon class="st24" points="1064.3,329.9 915.6,370.9 915.6,362.2 1032.7,329.9 				"/>
				<polygon class="st24" points="1139.8,329.9 915.6,391.8 915.6,383 1108.1,329.9 				"/>
				<polygon class="st24" points="915.6,412.6 1145.7,349.1 1145.7,340.4 915.6,403.9 				"/>
				<polygon class="st24" points="915.6,433.4 1145.7,369.9 1145.7,361.2 915.6,424.7 				"/>
				<polygon class="st24" points="915.6,454.2 1145.7,390.7 1145.7,382 915.6,445.5 				"/>
				<polygon class="st24" points="915.6,475 1145.7,411.6 1145.7,402.8 915.6,466.3 				"/>
				<polygon class="st24" points="915.6,495.8 1145.7,432.4 1145.7,423.7 915.6,487.1 				"/>
				<polygon class="st24" points="915.6,516.6 1145.7,453.2 1145.7,444.5 915.6,507.9 				"/>
				<polygon class="st24" points="915.6,537.5 1145.7,474 1145.7,465.3 915.6,528.7 				"/>
				<polygon class="st24" points="915.6,558.3 1145.7,494.8 1145.7,486.1 915.6,549.6 				"/>
				<polygon class="st24" points="915.6,579.1 1145.7,515.6 1145.7,506.9 915.6,570.4 				"/>
				<polygon class="st24" points="915.6,599.9 1145.7,536.4 1145.7,527.7 915.6,591.2 				"/>
				<polygon class="st24" points="915.6,620.7 1145.7,557.3 1145.7,548.5 915.6,612 				"/>
				<polygon class="st24" points="915.6,641.5 1145.7,578.1 1145.7,569.4 915.6,632.8 				"/>
				<polygon class="st24" points="915.6,662.3 1145.7,598.9 1145.7,590.2 915.6,653.6 				"/>
				<polygon class="st24" points="934.8,669.1 1145.7,611 1145.7,619.7 966.4,669.1 				"/>
				<polygon class="st24" points="1010.2,669.1 1145.7,631.8 1145.7,640.5 1041.9,669.1 				"/>
				<polygon class="st24" points="1085.7,669.1 1145.7,652.6 1145.7,661.3 1117.3,669.1 				"/>
			</g>
			<g>
				<polygon class="st24" points="915.6,350.1 872.2,338.2 872.2,329.9 874,329.9 915.6,341.4 				"/>
				<polygon class="st24" points="872.2,350.3 915.6,362.2 915.6,370.9 872.2,359 				"/>
				<polygon class="st24" points="872.2,371.1 915.6,383 915.6,391.8 872.2,379.8 				"/>
				<polygon class="st24" points="872.2,391.9 915.6,403.9 915.6,412.6 872.2,400.6 				"/>
				<polygon class="st24" points="872.2,412.7 915.6,424.7 915.6,433.4 872.2,421.4 				"/>
				<polygon class="st24" points="872.2,433.5 915.6,445.5 915.6,454.2 872.2,442.2 				"/>
				<polygon class="st24" points="872.2,454.3 915.6,466.3 915.6,475 872.2,463.1 				"/>
				<polygon class="st24" points="872.2,475.2 915.6,487.1 915.6,495.8 872.2,483.9 				"/>
				<polygon class="st24" points="872.2,496 915.6,507.9 915.6,516.6 872.2,504.7 				"/>
				<polygon class="st24" points="872.2,516.8 915.6,528.7 915.6,537.5 872.2,525.5 				"/>
				<polygon class="st24" points="872.2,537.6 915.6,549.6 915.6,558.3 872.2,546.3 				"/>
				<polygon class="st24" points="872.2,558.4 915.6,570.4 915.6,579.1 872.2,567.1 				"/>
				<polygon class="st24" points="872.2,579.2 915.6,591.2 915.6,599.9 872.2,587.9 				"/>
				<polygon class="st24" points="872.2,600 915.6,612 915.6,620.7 872.2,608.8 				"/>
				<polygon class="st24" points="872.2,620.9 915.6,632.8 915.6,641.5 872.2,629.6 				"/>
				<polygon class="st24" points="872.2,641.7 915.6,653.6 915.6,662.3 872.2,650.4 				"/>
				<polygon class="st24" points="872.2,662.5 896.4,669.1 872.2,669.1 				"/>
			</g>
			<path class="st25" d="M925.5,316.1c-1.3,0.9-2.8-0.7-1.8-2c4.6-5.6,12-13.1,21.1-17.9c6.6-3.4,14.3-6.6,21.1-9.1
				c1.6-0.6,2.6,1.6,1.1,2.4c-5.5,3.1-12.2,7-19.8,11.9C937,308.2,930,312.9,925.5,316.1z"/>
		</g>
		<g>
			<path class="st22" d="M311.7,187.4V421h35.9v-63.7c0-30.8,25-55.7,55.7-55.7l0,0c30.8,0,55.7,25,55.7,55.7V421h91.1V187.4H311.7z
				"/>
			<path class="st23" d="M288.2,187.4V421h35.9v-63.7c0-30.8,25-55.7,55.7-55.7l0,0c30.8,0,55.7,25,55.7,55.7V421h35.9V187.4H288.2z
				"/>
			<g>
				<rect x="288.2" y="195.4" class="st24" width="262" height="8"/>
				<rect x="288.2" y="208.7" class="st24" width="262" height="8"/>
				<rect x="288.2" y="222" class="st24" width="262" height="8"/>
				<rect x="288.2" y="235.3" class="st24" width="262" height="8"/>
				<rect x="288.2" y="248.6" class="st24" width="262" height="8"/>
				<rect x="288.2" y="261.9" class="st24" width="262" height="8"/>
				<rect x="288.2" y="275.2" class="st24" width="262" height="8"/>
				<rect x="288.2" y="288.5" class="st24" width="262" height="8"/>
			</g>
		</g>
		<g>
			<rect x="95.9" y="299.6" class="st24" width="148.7" height="190.4"/>
			<polygon class="st26" points="244.6,299.6 308.8,359.8 308.8,490 244.6,490 			"/>
			<rect x="103.9" y="319.2" class="st25" width="132" height="32.1"/>
			<rect x="103.9" y="378.7" class="st25" width="132" height="32.1"/>
			<rect x="103.9" y="433.1" class="st25" width="132" height="32.1"/>
		</g>
		<g>
			<polygon class="st22" points="179.4,481.8 179.4,393.2 35.1,393.2 35.1,481.8 35.1,656.8 309,656.8 309,481.8 			"/>
			<polygon class="st23" points="144.3,481.8 144.3,393.2 0,393.2 0,481.8 0,656.8 273.9,656.8 273.9,481.8 			"/>
			<path class="st27" d="M42.5,640.4h-0.7c-10.3,0-18.6-8.3-18.6-18.6V425c0-10.3,8.3-18.6,18.6-18.6h0.7c10.3,0,18.6,8.3,18.6,18.6
				v196.8C61.1,632.1,52.8,640.4,42.5,640.4z"/>
			<path class="st27" d="M104.7,640.4H104c-10.3,0-18.6-8.3-18.6-18.6V425c0-10.3,8.3-18.6,18.6-18.6h0.7c10.3,0,18.6,8.3,18.6,18.6
				v196.8C123.3,632.1,115,640.4,104.7,640.4z"/>
			<path class="st27" d="M170.2,640.4h-0.7c-10.3,0-18.6-8.3-18.6-18.6V514.6c0-10.3,8.3-18.6,18.6-18.6h0.7
				c10.3,0,18.6,8.3,18.6,18.6v107.2C188.8,632.1,180.5,640.4,170.2,640.4z"/>
			<path class="st27" d="M234.7,640.4H234c-10.3,0-18.6-8.3-18.6-18.6V514.6c0-10.3,8.3-18.6,18.6-18.6h0.7
				c10.3,0,18.6,8.3,18.6,18.6v107.2C253.3,632.1,244.9,640.4,234.7,640.4z"/>
		</g>
		<g>
			<path class="st24" d="M702,0.6L702,0.6c-1.6,0-2.8,1.3-2.8,2.8v97.4c0,1.6,1.3,2.8,2.8,2.8l0,0c1.6,0,2.8-1.3,2.8-2.8V3.4
				C704.8,1.9,703.5,0.6,702,0.6z"/>
			<rect x="619.1" y="193.4" class="st22" width="52.9" height="266.2"/>
			<path class="st24" d="M697.6,99.3h8.7c2.6,0,4.7,2.1,4.7,4.7v37.1c0,2.6-2.1,4.7-4.7,4.7h-8.7c-2.6,0-4.7-2.1-4.7-4.7V104
				C693,101.4,695,99.3,697.6,99.3z"/>
			<rect x="672" y="193.4" class="st23" width="181.2" height="266.2"/>
			<rect x="635.3" y="141.1" class="st22" width="45.5" height="52.3"/>
			<rect x="680.8" y="141.1" class="st23" width="158.8" height="52.3"/>
			<polygon class="st24" points="645.6,213.8 653.4,227.3 661.1,240.8 645.6,240.8 630,240.8 637.8,227.3 			"/>
			<polygon class="st24" points="726.6,153.8 734.4,167.2 742.1,180.7 726.6,180.7 711,180.7 718.8,167.2 			"/>
			<polygon class="st24" points="804.5,153.8 812.3,167.2 820,180.7 804.5,180.7 788.9,180.7 796.7,167.2 			"/>
			<polygon class="st24" points="645.6,255.5 653.4,269 661.1,282.5 645.6,282.5 630,282.5 637.8,269 			"/>
			<polygon class="st24" points="645.6,297.2 653.4,310.7 661.1,324.2 645.6,324.2 630,324.2 637.8,310.7 			"/>
			<polygon class="st23" points="645.6,338.9 653.4,352.4 661.1,365.9 645.6,365.9 630,365.9 637.8,352.4 			"/>
			<polygon class="st24" points="762.6,206.4 690.5,227.3 762.6,248.2 834.7,227.3 			"/>
			<polygon class="st24" points="762.6,255.7 690.5,276.5 762.6,297.4 834.7,276.5 			"/>
			<polygon class="st24" points="760.2,304.9 688.1,325.8 760.2,346.6 832.3,325.8 			"/>
			<polygon class="st24" points="762.6,354.1 690.5,375 762.6,395.9 834.7,375 			"/>
			<ellipse class="st24" cx="658.1" cy="169" rx="11.9" ry="17"/>
		</g>
		<g>
			<path class="st24" d="M1053.7,758.2h-0.9v-30.1c0-1.9-1-3.4-2.3-3.4h-15c-1.3,0-2.3,1.5-2.3,3.4v30.1h-0.9
				c-2.5,0-4.6,2.1-4.6,4.6v48.5c0,2.5,2.1,4.6,4.6,4.6h21.3c2.5,0,4.6-2.1,4.6-4.6v-48.5C1058.3,760.2,1056.2,758.2,1053.7,758.2z"
				/>
			<rect x="1037.2" y="522.7" class="st23" width="11.5" height="202"/>
			<polygon class="st23" points="1062.8,465.2 1022.7,465.2 1013.7,482.4 1071.5,482.4 			"/>
			<polygon class="st28" points="1023.1,482.3 1063.3,482.3 1052.6,523.4 1032.5,523.4 			"/>
		</g>
		<path class="st29" d="M309,427.8"/>
		<g>
			<rect x="304.5" y="410.1" class="st23" width="646.1" height="388.7"/>
			<rect x="288.6" y="395.4" class="st22" width="677.9" height="24.4"/>
			<rect x="262" y="367.1" class="st23" width="731" height="38.2"/>
			<path class="st30" d="M937.2,424.8"/>
			<path class="st30" d="M318.5,424.8"/>
			<path class="st29" d="M950.6,410.1"/>
			<ellipse class="st26" cx="646.2" cy="367.1" rx="100.1" ry="58.8"/>
			<ellipse class="st24" cx="627.5" cy="367.1" rx="100.1" ry="58.8"/>
			<g>
				<rect x="531.6" y="783.9" class="st26" width="199.5" height="15"/>
			</g>
			<g>
				<rect x="510" y="798.9" class="st24" width="242.6" height="17"/>
			</g>
			<path class="st29" d="M540.4,800.4"/>
			<path class="st29" d="M352.1,800.4"/>
			<path class="st31" d="M931.2,768.5"/>
			<path class="st31" d="M631.3,768.5"/>
			<path class="st27" d="M695,573.3H569.2c-8.4,0-15.3,6.8-15.3,15.3v195.3h156.4V588.6C710.3,580.2,703.5,573.3,695,573.3z"/>
			<path class="st27" d="M467.6,461.3h-93.5c-12.1,0-22,9.8-22,22v222.9c0,12.1,9.8,22,22,22h93.5c12.1,0,22-9.8,22-22V483.3
				C489.5,471.1,479.7,461.3,467.6,461.3z"/>
			<path class="st27" d="M877.6,461.3h-93.5c-12.1,0-22,9.8-22,22v222.9c0,12.1,9.8,22,22,22h93.5c12.1,0,22-9.8,22-22V483.3
				C899.5,471.1,889.7,461.3,877.6,461.3z"/>
		</g>
		<rect x="233.8" y="723.2" class="st23" width="10.4" height="92.6"/>
		<rect x="123.9" y="633.6" class="st23" width="10.4" height="182.2"/>
		<circle class="st24" cx="239" cy="683.4" r="47.9"/>
		<circle class="st24" cx="129.1" cy="618.4" r="72"/>
		<polygon class="st26" points="174.8,562.4 126.1,609.3 126.1,624.3 62.4,592.1 59.7,597.4 126.1,631 126.1,690.4 132.1,690.4 
			132.1,611.8 178.9,566.7 		"/>
		<polygon class="st26" points="264.2,642.6 238.3,679.2 203,651.7 199.3,656.4 236,684.9 236,731.4 242,731.4 242,684.4 269.1,646 
					"/>
	</g>
</g>
<g id="Layer_2">
	<rect x="1315.2" y="160.1" class="st23" width="97.1" height="97.1"/>
	<rect x="1315.2" y="301.6" class="st24" width="97.1" height="97.1"/>
	<rect x="1177" y="301.6" class="st26" width="97.1" height="97.1"/>
	<rect x="1177" y="160.1" class="st22" width="97.1" height="97.1"/>
	<rect x="1446.4" y="301.6" class="st25" width="97.1" height="97.1"/>
	<rect x="1315.2" y="457.8" class="st27" width="97.1" height="97.1"/>
</g>
</svg>
