<?xml version="1.0" encoding="utf-8"?>
<!-- Generator: Adobe Illustrator 23.1.0, SVG Export Plug-In . SVG Version: 6.00 Build 0)  -->
<svg version="1.1" id="Layer_1" xmlns="http://www.w3.org/2000/svg" xmlns:xlink="http://www.w3.org/1999/xlink" x="0px" y="0px"
	 viewBox="0 0 219.762 219.857" enable-background="new 0 0 219.762 219.857" xml:space="preserve">
<path fill="#FFD9C0" d="M219.723,74.414c0-5.457-1.413-10.583-3.887-15.038l-66.75,44.857l67.189,55.418c2.199-4.26,3.448-9.089,3.448-14.213
	V74.414z"/>
<path fill="#FFD9C0" d="M109.881,105.278l89.365-60.054c-3.296-1.192-6.85-1.845-10.557-1.845H31.08c-3.709,0-7.265,0.653-10.562,1.846
	L109.881,105.278z"/>
<path fill="#FFD9C0" d="M3.927,59.377c-2.475,4.457-3.889,9.584-3.889,15.044v71.023c0,5.122,1.249,9.95,3.446,14.208l67.191-55.419L3.927,59.377z
	"/>
<path fill="#FFD9C0" d="M130.9,116.454l-21.019,14.125l-21.019-14.125l-69.834,57.599c3.704,1.561,7.773,2.425,12.045,2.425h157.609
	c4.274,0,8.345-0.864,12.051-2.427L130.9,116.454z"/>
</svg>
