<?xml version="1.0" encoding="utf-8"?>
<!-- Generator: Adobe Illustrator 23.1.0, SVG Export Plug-In . SVG Version: 6.00 Build 0)  -->
<svg version="1.1" id="Layer_1" xmlns="http://www.w3.org/2000/svg" xmlns:xlink="http://www.w3.org/1999/xlink" x="0px" y="0px"
	 viewBox="0 0 400 400" enable-background="new 0 0 400 400" xml:space="preserve">
<path fill="#3F5362" d="M162.206,399.593V219.861h-61.051v-75.433h61.051c0,0,0-63.635,0-66.196c0-2.561-0.232-28.429,20.762-51.12
	C203.962,4.42,231.591,0.407,236.841,0.407s73.17,0,73.17,0v67.611c0,0-45.334,0-47.391,0c-2.059,0-9.494-0.154-16.518,6.483
	c-7.021,6.638-8.182,15.127-8.182,17.598c0,2.47,0,52.175,0,52.175h70.701l-9.881,75.793h-60.975v179.525H162.206z"/>
</svg>
