<?xml version="1.0" encoding="utf-8"?>
<!-- Generator: Adobe Illustrator 23.1.0, SVG Export Plug-In . SVG Version: 6.00 Build 0)  -->
<svg version="1.1" id="Layer_1" xmlns="http://www.w3.org/2000/svg" xmlns:xlink="http://www.w3.org/1999/xlink" x="0px" y="0px"
	 viewBox="0 0 216.774 216.774" enable-background="new 0 0 216.774 216.774" xml:space="preserve">
<path fill="#FFD9C0" d="M216.602,108.383c0,0,1.415,78.441-7.823,82.875c-9.234,4.497-31.324,8.832-50.592-7.516
	c-19.373-16.385-18.689-28.92-20.208-35.762c-1.72-7.516-4.903-13.472-8.505-17.703c-3.602-4.282-10.186-8.2-15.979-9.189
	c-5.952-0.938-17.491,1.156-25.114,5.59c-6.785,3.865-14.044,9.453-25.793,12.686c-11.749,3.293-28.717,2.608-35.921,0.684
	c-7.151-1.938-14.671-6.22-19.213-12.749c-4.597-6.525-6.395-9.278-7.36-18.894C0.9,99.01,2.857,95.974,7.454,89.446
	c4.542-6.525,12.062-10.746,19.213-12.735c7.204-1.93,24.172-2.612,35.921,0.68c11.75,3.286,19.009,8.873,25.793,12.739
	c7.623,4.386,19.162,6.525,25.114,5.536c5.792-0.937,12.377-4.914,15.979-9.137c3.603-4.231,6.785-10.187,8.505-17.754
	c1.519-6.843,0.836-19.315,20.208-35.761c19.268-16.349,41.357-11.964,50.592-7.527C218.017,29.984,216.602,108.383,216.602,108.383
	z"/>
</svg>
