<?xml version="1.0" encoding="utf-8"?>
<!-- Generator: Adobe Illustrator 23.1.0, SVG Export Plug-In . SVG Version: 6.00 Build 0)  -->
<svg version="1.1" id="Layer_1" xmlns="http://www.w3.org/2000/svg" xmlns:xlink="http://www.w3.org/1999/xlink" x="0px" y="0px"
	 viewBox="0 0 2661.2 1496.9" style="enable-background:new 0 0 2661.2 1496.9;" xml:space="preserve">
<style type="text/css">
	.st0{fill:#3F5362;}
	.st1{fill:#2F3F4B;}
	.st2{display:none;}
	.st3{display:inline;}
	.st4{fill:url(#SVGID_1_);}
	.st5{fill:#FFFFFF;}
	.st6{display:inline;fill:#A6D3DD;}
	.st7{display:inline;fill:#8BC0CC;}
	.st8{fill:#289358;}
	.st9{fill:#1E7A45;}
	.st10{fill:#7F4F38;}
	.st11{fill:#0D7057;}
	.st12{fill:#703C28;}
	.st13{fill:#602E1E;}
	.st14{fill:#08513C;}
	.st15{fill:#CAE5FF;}
	.st16{opacity:0.5;fill:#FFFFFF;enable-background:new    ;}
	.st17{fill:#6D1700;}
	.st18{fill:#A0341C;}
	.st19{fill:#262626;}
	.st20{fill:#C67A2E;}
	.st21{fill:#111111;}
	.st22{fill:url(#SVGID_2_);}
	.st23{opacity:0.4;fill:#111111;enable-background:new    ;}
</style>
<rect x="0.1" class="st0" width="2661" height="1497"/>
<g>
	<path class="st1" d="M2661.2,224.6c-177-41.8-358.4-70.8-533.8-29.9c-114.8,26.8-221.7,82.6-337.4,105.3
		c-133.7,26.3-278.4,8.4-400.8,68.1c-110,53.7-184.6,164.9-214.7,283.6c-30.1,118.6-19.9,244.2,5.9,363.8
		c16.9,78.3,41.9,157.8,95.2,217.6c64.1,71.9,161.4,105.8,256.9,117.6s192.4,4.3,288.6,7.9c72,2.7,147,12.9,206.2,54.1
		c29.5,20.6,53.6,50.8,66.8,84.3h567.2L2661.2,224.6L2661.2,224.6z"/>
</g>
<path class="st0" d="M2661.2,550c-54.1,27.4-109.7,74.7-133.9,156.4c-54.2,182.8-38,420.7-166.9,656.5c-3.4,6.2-6.7,12.3-9.9,18.4
	c31.9,0.1,63.4-2.5,93.6-14.1c81.6-31.4,135.4-121.5,172.8-211.5c14.6-35.2,27.8-71.4,44.3-105.3L2661.2,550L2661.2,550z"/>
<path class="st0" d="M1386.2,592.6c0,0,102.5-189.8,253-197.2c150.4-7.4,295.7,78.6,438.6,78.4c142.9-0.3,310.1-70.4,310.1-70.4
	S2200.8,524,2065.6,515.7s-331.8-67.4-448.9-43.6C1499.5,496,1417.7,568.5,1386.2,592.6z"/>
<g class="st2">
	<g class="st3">
		<g>
			
				<linearGradient id="SVGID_1_" gradientUnits="userSpaceOnUse" x1="1986.55" y1="2367.9573" x2="1986.55" y2="3087.5571" gradientTransform="matrix(1 0 0 -1 -72 3425.6572)">
				<stop  offset="0" style="stop-color:#DCEAF7"/>
				<stop  offset="1" style="stop-color:#C1DDF7"/>
			</linearGradient>
			<rect x="1333.4" y="338.1" class="st4" width="1162.3" height="719.6"/>
		</g>
		<path class="st5" d="M2420.4,586.9c0,1.9-2.7,3.1-6,3.1H2277c-3.3,0-6.4-1.2-6.4-3.1v-5.7c0-1.9,3.1-3.8,6.4-3.8h137.4
			c3.3,0,6,1.8,6,3.8V586.9L2420.4,586.9z"/>
		<path class="st5" d="M2472.3,601.6c0,1.9-4.9,3.5-10.8,3.5H2212c-6,0-10.9-1.6-10.9-3.5v-5.7c0-1.9,4.9-3.4,10.9-3.4h249.4
			c6,0,10.8,1.4,10.8,3.4v5.7H2472.3z"/>
		<path class="st5" d="M2406.2,572.2c0,1.5-2.5,2.7-5.6,2.7h-72.4c-3.1,0-5.6-1.2-5.6-2.7v-8c0-1.5,2.5-2.7,5.6-2.7h72.4
			c3.1,0,5.6,1.2,5.6,2.7V572.2z"/>
		<path class="st5" d="M1761,590.1c0,3.6-2.9,6.6-6.6,6.6h-340.8c-3.6,0-6.6-2.9-6.6-6.6v-0.2c0-3.6,2.9-6.6,6.6-6.6h340.8
			c3.6,0,6.6,2.9,6.6,6.6L1761,590.1L1761,590.1z"/>
		<path class="st5" d="M1823,574.2c0,2.7-3.8,4.9-8.4,4.9h-255.1c-4.7,0-8.5-2.2-8.5-4.9v-1.8c0-2.7,3.8-4.9,8.5-4.9h255.1
			c4.7,0,8.4,2.2,8.4,4.9V574.2L1823,574.2z"/>
		<path class="st5" d="M1789.5,557.1c0,2.5-2,4.4-4.5,4.4h-104c-2.5,0-4.5-2-4.5-4.4v-5c0-2.5,2-4.8,4.5-4.8h104
			c2.5,0,4.5,2.3,4.5,4.8V557.1L1789.5,557.1z"/>
		<path class="st5" d="M1420.5,656.9c0,3.7-3,6.7-6.7,6.7h-32.6c-3.7,0-6.7-3-6.7-6.7v-3.3c0-3.7,3-6.7,6.7-6.7h32.6
			c3.7,0,6.7,3,6.7,6.7V656.9z"/>
		<path class="st5" d="M1839.7,501.4c0,3.6-2.9,6.5-6.6,6.5h-13.7c-3.6,0-6.5-2.9-6.5-6.5v-0.3c0-3.6,2.9-6.5,6.5-6.5h13.7
			c3.6,0,6.6,2.9,6.6,6.5V501.4z"/>
		<path class="st5" d="M1860.6,503.8c0,2.3-1.9,4.2-4.2,4.2l0,0c-2.3,0-4.2-1.9-4.2-4.2v-5c0-2.3,1.9-4.2,4.2-4.2l0,0
			c2.3,0,4.2,1.9,4.2,4.2V503.8z"/>
		<path class="st5" d="M2024.6,501.3c0,3.7-3,6.7-6.7,6.7h-121.3c-3.7,0-6.7-3-6.7-6.7l0,0c0-3.7,3-6.7,6.7-6.7h121.3
			C2021.6,494.6,2024.6,497.6,2024.6,501.3L2024.6,501.3z"/>
		<path class="st5" d="M2003.7,484.6c0,3.2-2.6,5.9-5.9,5.9h-68.6c-3.2,0-5.9-2.6-5.9-5.9l0,0c0-3.2,2.6-5.9,5.9-5.9h68.6
			C2001.1,478.7,2003.7,481.3,2003.7,484.6L2003.7,484.6z"/>
	</g>
	<polygon class="st6" points="1631.5,963.6 1631.5,938.4 1607.6,938.4 1607.6,929.6 1591.2,929.6 1591.2,910.8 1578.6,910.1 
		1578.6,919.6 1564.8,919.6 1564.8,884.3 1557.2,884.3 1557.2,868 1559.7,868 1560,865.4 1553.5,865.4 1553.5,857.9 1532.1,857.9 
		1532.1,865.4 1523.2,865.4 1523.2,857.9 1519.5,857.9 1519.5,865.4 1514.4,865.4 1514.4,857.9 1510.7,857.9 1510.7,865.4 
		1501.8,865.4 1501.8,868 1504.4,868 1504.4,907 1472.9,907 1472.9,840.3 1471.6,840.3 1471.6,834 1470.4,834 1470.4,818.9 
		1469.1,818.9 1469.1,834 1467.9,834 1467.9,822.6 1466.6,822.6 1466.6,834 1462.8,834 1462.8,839 1457.8,839 1457.8,963.6 	"/>
	<polygon class="st7" points="1430.1,963.6 1430.1,949.8 1449,949.8 1449,928.4 1466.6,928.4 1466.6,952.3 1481.7,953.6 
		1481.7,933.4 1503.1,933.4 1503.1,901.9 1525.8,901.9 1525.8,941 1553.5,941.4 1553.5,889.4 1562.3,889.4 1562.3,886.8 
		1572.3,886.8 1572.3,888.1 1576.1,889.4 1576.1,904.5 1597.5,904 1597.5,929.6 1608.8,930.5 1608.8,856.6 1622.7,856.6 
		1622.7,860.4 1641.6,860 1641.6,954.8 1641.6,963.6 	"/>
	<polygon class="st6" points="2440.9,963.6 2440.9,938.4 2417,938.4 2417,929.6 2400.6,929.6 2400.6,910.8 2388,910.1 2388,919.6 
		2374.2,919.6 2374.2,884.3 2366.6,884.3 2366.6,868 2369.1,868 2369.3,865.4 2362.8,865.4 2362.8,857.9 2341.4,857.9 2341.4,865.4 
		2332.6,865.4 2332.6,857.9 2328.8,857.9 2328.8,865.4 2323.8,865.4 2323.8,857.9 2320,857.9 2320,865.4 2311.2,865.4 2311.2,868 
		2313.7,868 2313.7,907 2282.3,907 2282.3,840.3 2281,840.3 2281,834 2279.8,834 2279.8,818.9 2278.5,818.9 2278.5,834 2277.2,834 
		2277.2,822.6 2276,822.6 2276,834 2272.2,834 2272.2,839 2267.2,839 2267.2,963.6 	"/>
	<polygon class="st7" points="2451,963.6 2451,949.8 2432.1,949.8 2432.1,928.4 2414.4,928.4 2414.4,952.3 2399.3,953.6 
		2399.3,933.4 2377.9,933.4 2377.9,901.9 2355.3,901.9 2355.3,941 2327.6,941.4 2327.6,889.4 2318.8,889.4 2318.8,886.8 
		2308.7,886.8 2308.7,888.1 2304.9,889.4 2304.9,904.5 2283.5,904 2283.5,929.6 2272.2,930.5 2272.2,856.6 2258.4,856.6 
		2258.4,860.4 2239.5,860 2239.5,954.8 2239.5,963.6 	"/>
	<g class="st3">
		<path class="st8" d="M1875.2,976.2c-64.8-3.4-362.9-37.3-398,5.4c-8.7,10.6-17.4,33.5,21.9,70.5c39.3,36.9,242.2,5.9,354.1-1.7
			c98.6-6.7,331.2,21.2,427.7,4.3c42.4-7.4,154.3-87.5,55.2-90.8C2186.1,958.9,2025.3,972.3,1875.2,976.2z"/>
		<path class="st9" d="M1880.1,985.2c-57.7-1.7-323.3-19-354.6,2.8c-7.7,5.4-15.5,17.1,19.5,35.9s215.8,3,315.5-0.9
			c87.9-3.4,295.1,10.8,381.1,2.2c37.7-3.8,130.5-42.2,42.2-43.9C2150.1,978.7,2013.8,983.2,1880.1,985.2z"/>
	</g>
	<g class="st3">
		<path class="st10" d="M1540.7,990.9c0,0,11.6-175.9-17.5-280.7s-73.4-158.5-73.4-158.5l18.4-9.3c0,0,63.3,33.2,93.2,139
			c29.9,105.7,53.9,311.5,53.9,311.5L1540.7,990.9z"/>
		<path class="st11" d="M1409.7,549.2c0,0-76.8-42-134.3,6.7c-57.5,48.8-77.4,127.4-77.4,127.4s69-79,108.1-93.6
			C1345.1,575,1409.7,549.2,1409.7,549.2z"/>
		<path class="st11" d="M1415.2,555.2c0,0-83.5,3.8-97.6,110.1c-14.1,106.2,30.3,169,30.3,169s-1.8-84.4,14.3-176
			C1378.4,566.5,1415.2,555.2,1415.2,555.2z"/>
		<path class="st11" d="M1479.9,521.9c0,0,72.4-15,129.8-5.5c38.1,6.3,39.7,61.1,38.9,98.3c-0.3,14.1-17-41.8-54.5-62
			C1556.6,532.4,1479.9,521.9,1479.9,521.9z"/>
		<path class="st11" d="M1440.5,513.6c0,0-73.7-54.8-55-138.9s74.5-57.7,83.5-55.3c0,0-44.9,45.9-44.3,89.6
			C1425.2,452.7,1440.5,513.6,1440.5,513.6z"/>
		<path class="st11" d="M1460.1,507.7c0,0,25.1-90.3,77.1-110.3c52-20.1,113.6,27,113.6,27s-61.1,3.4-93.5,18.3
			C1501.1,468.7,1460.1,507.7,1460.1,507.7z"/>
		<path class="st11" d="M1418.4,516.8c0,0-81.9-87.4-142.4-97.4s-152.1,42-157.1,81.9c0,0,86.4-19,148.1-13.9
			C1306.2,490.7,1418.4,516.8,1418.4,516.8z"/>
		<path class="st12" d="M1434.3,501.4c-25.8,7.6-31.7,41.5-24.2,50.3s45.1,5.2,55.1-3.9c10-9.1,23.2-30.8,11.9-42.8
			C1465.9,493,1434.3,501.4,1434.3,501.4z"/>
		<path class="st13" d="M1415.5,552.9c0,0,25.4-5.8,35.5-12.6s26.6-20,26.6-20s-5,23.7-16.9,28
			C1448.8,552.6,1433.7,556.6,1415.5,552.9z"/>
		<path class="st14" d="M1397.4,547.7c0,0-49.9-18-82.6-7.5s7.3,5.9,30.3,7.5C1368.2,549.4,1397.4,547.7,1397.4,547.7z"/>
		<path class="st14" d="M1386.1,494.6c0,0-24.3-25.9-43.5-33.9s-40.2-8-40.2-8s21.8,6.5,37.3,14.7S1386.1,494.6,1386.1,494.6z"/>
		<path class="st14" d="M1384.9,568.7c0,0-23.7,9.2-32.5,28.9s-5.6,36-5.6,36s6.1-28.4,18.8-42.2
			C1377.2,578.5,1384.9,568.7,1384.9,568.7z"/>
		<path class="st14" d="M1480,478.4c0,0,1.5-26.8,17.7-39.6c16.2-12.8,53-20.6,53-20.6s-21.2,13.4-43,29.6
			C1486,463.9,1480,478.4,1480,478.4z"/>
		<path class="st14" d="M1534,521.7c0,0,51-7,70.6,2.8c19.5,9.8,18.8,27.4,18.8,27.4s-10.2-17.2-30.8-21.5
			C1571.9,526,1534,521.7,1534,521.7z"/>
		<path class="st14" d="M1421.8,395.3c0,0-25.7,26.9-15.1,54.7c10.6,27.8,24,44.6,24,44.6s-12-24-12.4-59.7
			S1421.8,395.3,1421.8,395.3z"/>
		<path class="st13" d="M1536.2,739.4c0,0,18.8,25.4,27.3,98.3c7.7,66.1,2.3,140.2,2.3,140.2l-18.5,6.3c0,0,7.8-39.6,0.8-135.6
			C1541.3,753.2,1536.2,739.4,1536.2,739.4z"/>
	</g>
	<g class="st3">
		<rect x="1635.5" y="710.5" class="st15" width="619.2" height="288.7"/>
		<g>
			<polygon class="st16" points="1812.1,731.4 1662.1,948.1 1648.7,977 1804.1,753.6 			"/>
			<polygon class="st16" points="1743.6,873.3 1696.1,942.7 1694.1,955.7 1740.6,887.5 			"/>
		</g>
		<polygon class="st16" points="2165.3,723.2 1966.9,898.3 1927.2,942.7 2144,751.8 		"/>
		<polygon class="st16" points="2108.6,804.7 1984.6,930 2056.9,872.1 		"/>
		<g>
			<rect x="1602.9" y="706.3" class="st17" width="32.6" height="292.9"/>
			<rect x="1601.2" y="703" class="st18" width="34.3" height="13.4"/>
			<rect x="1601.2" y="717.2" class="st18" width="11.7" height="14.2"/>
			<rect x="1614.6" y="717.2" class="st18" width="22.6" height="14.2"/>
			<rect x="1601.2" y="732.3" class="st18" width="34.3" height="14.2"/>
			<rect x="1601.2" y="748.1" class="st18" width="11.7" height="12.6"/>
			<rect x="1614.6" y="748.1" class="st18" width="22.6" height="12.6"/>
			<rect x="1601.2" y="761.5" class="st18" width="34.3" height="15.1"/>
			<rect x="1601.2" y="777.4" class="st18" width="11.7" height="12.6"/>
			<rect x="1614.6" y="777.4" class="st18" width="22.6" height="12.6"/>
			<rect x="1601.2" y="791.7" class="st18" width="34.3" height="13.4"/>
			<rect x="1601.2" y="807.6" class="st18" width="11.7" height="12.6"/>
			<rect x="1614.6" y="807.6" class="st18" width="22.6" height="12.6"/>
			<rect x="1601.2" y="821.8" class="st18" width="34.3" height="13.4"/>
			<rect x="1601.2" y="837.7" class="st18" width="11.7" height="12.6"/>
			<rect x="1614.6" y="837.7" class="st18" width="22.6" height="12.6"/>
			<rect x="1601.2" y="851.9" class="st18" width="34.3" height="13.4"/>
			<rect x="1601.2" y="866.1" class="st18" width="11.7" height="14.2"/>
			<rect x="1614.6" y="866.1" class="st18" width="22.6" height="14.2"/>
			<rect x="1601.2" y="882" class="st18" width="34.3" height="12.6"/>
			<rect x="1601.2" y="896.3" class="st18" width="11.7" height="13.4"/>
			<rect x="1614.6" y="896.3" class="st18" width="22.6" height="13.4"/>
			<rect x="1601.2" y="911.3" class="st18" width="34.3" height="13.4"/>
			<rect x="1601.2" y="925.5" class="st18" width="11.7" height="13.4"/>
			<rect x="1614.6" y="925.5" class="st18" width="22.6" height="13.4"/>
			<rect x="1601.2" y="941.5" class="st18" width="34.3" height="13.4"/>
			<rect x="1601.2" y="955.7" class="st18" width="11.7" height="14.2"/>
			<rect x="1614.6" y="955.7" class="st18" width="22.6" height="14.2"/>
			<rect x="1601.2" y="970.7" class="st18" width="34.3" height="14.2"/>
			<rect x="1601.2" y="985.8" class="st18" width="11.7" height="13.4"/>
			<rect x="1614.6" y="985.8" class="st18" width="22.6" height="13.4"/>
		</g>
		<g>
			<rect x="2254.7" y="706.3" class="st17" width="32.6" height="292.9"/>
			<rect x="2254.7" y="701.3" class="st18" width="33.5" height="14.2"/>
			<rect x="2277.3" y="717.2" class="st18" width="10.9" height="14.2"/>
			<rect x="2253.1" y="717.2" class="st18" width="22.6" height="14.2"/>
			<rect x="2254.7" y="732.3" class="st18" width="33.5" height="14.2"/>
			<rect x="2277.3" y="748.1" class="st18" width="10.9" height="12.6"/>
			<rect x="2253.1" y="748.1" class="st18" width="22.6" height="12.6"/>
			<rect x="2254.7" y="761.5" class="st18" width="33.5" height="15.1"/>
			<rect x="2277.3" y="777.4" class="st18" width="10.9" height="12.6"/>
			<rect x="2253.1" y="777.4" class="st18" width="22.6" height="12.6"/>
			<rect x="2254.7" y="791.7" class="st18" width="33.5" height="13.4"/>
			<rect x="2277.3" y="807.6" class="st18" width="10.9" height="12.6"/>
			<rect x="2253.1" y="807.6" class="st18" width="22.6" height="12.6"/>
			<rect x="2254.7" y="821.8" class="st18" width="33.5" height="13.4"/>
			<rect x="2277.3" y="837.7" class="st18" width="10.9" height="12.6"/>
			<rect x="2253.1" y="837.7" class="st18" width="22.6" height="12.6"/>
			<rect x="2254.7" y="851.9" class="st18" width="33.5" height="13.4"/>
			<rect x="2277.3" y="866.1" class="st18" width="10.9" height="14.2"/>
			<rect x="2253.1" y="866.1" class="st18" width="22.6" height="14.2"/>
			<rect x="2254.7" y="882" class="st18" width="33.5" height="12.6"/>
			<rect x="2277.3" y="896.3" class="st18" width="10.9" height="13.4"/>
			<rect x="2253.1" y="896.3" class="st18" width="22.6" height="13.4"/>
			<rect x="2254.7" y="911.3" class="st18" width="33.5" height="13.4"/>
			<rect x="2277.3" y="925.5" class="st18" width="10.9" height="13.4"/>
			<rect x="2253.1" y="925.5" class="st18" width="22.6" height="13.4"/>
			<rect x="2254.7" y="941.5" class="st18" width="33.5" height="13.4"/>
			<rect x="2277.3" y="955.7" class="st18" width="10.9" height="14.2"/>
			<rect x="2253.1" y="955.7" class="st18" width="22.6" height="14.2"/>
			<rect x="2254.7" y="970.7" class="st18" width="33.5" height="14.2"/>
			<rect x="2277.3" y="985.8" class="st18" width="10.9" height="13.4"/>
			<rect x="2253.1" y="985.8" class="st18" width="22.6" height="13.4"/>
		</g>
		<g>
			<rect x="1842.2" y="706.3" class="st17" width="47.7" height="292.9"/>
			<rect x="1839.7" y="701.3" class="st18" width="51.9" height="14.2"/>
			<rect x="1874" y="716.4" class="st18" width="17.6" height="14.2"/>
			<rect x="1839.7" y="716.4" class="st18" width="32.6" height="14.2"/>
			<rect x="1839.7" y="731.4" class="st18" width="51.9" height="14.2"/>
			<rect x="1874" y="747.3" class="st18" width="17.6" height="12.6"/>
			<rect x="1839.7" y="747.3" class="st18" width="32.6" height="12.6"/>
			<rect x="1839.7" y="760.7" class="st18" width="51.9" height="15.1"/>
			<rect x="1874" y="776.6" class="st18" width="17.6" height="12.6"/>
			<rect x="1839.7" y="776.6" class="st18" width="32.6" height="12.6"/>
			<rect x="1839.7" y="791.7" class="st18" width="51.9" height="13.4"/>
			<rect x="1874" y="806.7" class="st18" width="17.6" height="12.6"/>
			<rect x="1839.7" y="806.7" class="st18" width="32.6" height="12.6"/>
			<rect x="1839.7" y="821" class="st18" width="51.9" height="13.4"/>
			<rect x="1874" y="836.8" class="st18" width="17.6" height="12.6"/>
			<rect x="1839.7" y="836.8" class="st18" width="32.6" height="12.6"/>
			<rect x="1839.7" y="851.1" class="st18" width="51.9" height="13.4"/>
			<rect x="1874" y="866.1" class="st18" width="17.6" height="14.2"/>
			<rect x="1839.7" y="866.1" class="st18" width="32.6" height="14.2"/>
			<rect x="1839.7" y="881.2" class="st18" width="51.9" height="12.6"/>
			<rect x="1874" y="896.3" class="st18" width="17.6" height="13.4"/>
			<rect x="1839.7" y="896.3" class="st18" width="32.6" height="13.4"/>
			<rect x="1839.7" y="911.3" class="st18" width="51.9" height="13.4"/>
			<rect x="1874" y="926.4" class="st18" width="17.6" height="13.4"/>
			<rect x="1839.7" y="926.4" class="st18" width="32.6" height="13.4"/>
			<rect x="1839.7" y="940.6" class="st18" width="51.9" height="13.4"/>
			<rect x="1874" y="955.7" class="st18" width="17.6" height="14.2"/>
			<rect x="1839.7" y="955.7" class="st18" width="32.6" height="14.2"/>
			<rect x="1839.7" y="970.7" class="st18" width="51.9" height="14.2"/>
			<rect x="1874" y="985.8" class="st18" width="17.6" height="13.4"/>
			<rect x="1839.7" y="985.8" class="st18" width="32.6" height="13.4"/>
		</g>
		<polygon class="st19" points="1533.2,711.5 1892.1,570.7 1975.2,570.7 2333.2,711.8 		"/>
		<ellipse class="st20" cx="1933.2" cy="646.6" rx="93.8" ry="51.6"/>
		<path class="st21" d="M1592.4,701.3l195.6-72.2c0,0-30.8,18.2-19.1,36.1c11.7,17.8,54.2,31.3,54.2,31.3L1592.4,701.3z"/>
		<path class="st21" d="M2021.8,698.8c0,0,51-6.9,57.4-20.4S2075,635,2075,635l198.8,63.7L2021.8,698.8L2021.8,698.8z"/>
		<polygon class="st21" points="1622.1,951.2 1582,983.4 1582,1030.5 1622.1,999 		"/>
		<polygon class="st16" points="1622.1,842.5 1582,856.4 1582,983.9 1622.1,951.7 		"/>
		
			<linearGradient id="SVGID_2_" gradientUnits="userSpaceOnUse" x1="2358.5901" y1="3128.5627" x2="2358.5901" y2="3049.2627" gradientTransform="matrix(1 0 0 -1 -72.04 4079.7627)">
			<stop  offset="0" style="stop-color:#000000"/>
			<stop  offset="5.640000e-02" style="stop-color:#030303"/>
			<stop  offset="0.4735" style="stop-color:#171717"/>
			<stop  offset="0.7581" style="stop-color:#1E1E1E"/>
		</linearGradient>
		<polygon class="st22" points="2271.5,951.2 2301.6,983.4 2301.6,1030.5 2271.5,999 		"/>
		<rect x="1792.8" y="983.3" class="st21" width="508.8" height="46.9"/>
		<rect x="1792.8" y="856.1" class="st16" width="508.8" height="127.2"/>
		<rect x="1582" y="983.3" class="st21" width="58.6" height="46.9"/>
		<rect x="1582" y="856.1" class="st16" width="58.6" height="127.2"/>
		<path class="st23" d="M1930.3,596.3c0,0,30.2,2.8,61.2,22.8s26.6,46,26.6,46s24.1-28.6-19.8-52.8
			C1962.6,592.6,1930.3,596.3,1930.3,596.3z"/>
		<polygon class="st16" points="2271.5,845.2 2301.6,855.9 2301.6,983.5 2271.5,951.2 		"/>
	</g>
</g>
<path class="st0" d="M1562.2,1226.4c0,0,62,37.2,151.8,23.2c89.8-13.9,16.4,96-63.8,44.9C1570,1243.5,1562.2,1226.4,1562.2,1226.4z"
	/>
</svg>
