<?xml version="1.0" encoding="utf-8"?>
<!-- Generator: Adobe Illustrator 23.1.0, SVG Export Plug-In . SVG Version: 6.00 Build 0)  -->
<svg version="1.1" id="Layer_1" xmlns="http://www.w3.org/2000/svg" xmlns:xlink="http://www.w3.org/1999/xlink" x="0px" y="0px"
	 viewBox="0 0 2661.2 1497.2" style="enable-background:new 0 0 2661.2 1497.2;" xml:space="preserve">
<style type="text/css">
	.st0{fill:#3F5362;}
	.st1{fill:#2F3F4B;}
	.st2{fill:#27343D;}
</style>
<rect class="st0" width="2661.2" height="1497.3"/>
<g>
	<path class="st1" d="M2084,1316.4c15.8,1.7,31.8,8.7,40.9,21.8c9,13.1,9,32.9-2.7,43.7c-11.4,10.5-28.8,9.7-44.3,8.9
		c-58.8-2.9-118.1,3.7-174.8,19.5c-46.9,13.1-93.3,32.6-142,30.7c-13.8-0.5-29.3-3.9-36.6-15.7c-9-14.6-0.3-34,11.8-46.2
		c32.3-32.7,47.7-34.9,93.5-37.9c51.5-3.3,94.4,13.7,154.8,3.9S2068.2,1314.7,2084,1316.4z"/>
</g>
<g>
	<path class="st1" d="M1232.3,1496.9c-108.8-30.5-228.8-35.2-327.1-91.7c-76.3-43.8-135.7-116.8-218.9-145.3
		c-99.1-33.9-208.8,3-312.1-14c-85.5-14.1-160.1-63.9-238.9-99.9C93,1126.7,46.1,1111.5,0,1107.9v389H1232.3z"/>
</g>
<g>
	<path class="st2" d="M553.2,1496.9c-25.2-14.9-54.4-22.5-83.3-27.7c-99.6-17.6-207.3-9-295.8-57.9c-38.1-21.1-70.7-52-111-68.7
		c-20-8.2-41.5-12.6-63.1-13v167.3L553.2,1496.9L553.2,1496.9z"/>
</g>
<g>
	<path class="st1" d="M2661,835.6c-35.7,21.7-71.5,43.3-107.2,65c-15.7,9.5-32.1,19.7-41.3,35.6c-17.8,30.9-2.4,69.9-5.9,105.4
		c-3.4,34.3-24.8,64.6-51,87.1c-26.1,22.5-57,38.6-86.5,56.5s-58.4,38.5-77.6,67.1c-14.2,21.1-22.4,49-11.6,72.1
		c10.3,22.1,35.2,33.9,59.3,37.2c41.3,5.8,84.1-8.4,116.9-34.2c32.8-25.8,56.1-62.4,70.5-101.6c8.1-22,14.7-46.7,34-60
		c24.5-16.9,58-7.9,86.9-14.9c4.7-1.1,9.1-2.7,13.5-4.6L2661,835.6L2661,835.6z"/>
</g>
<path class="st2" d="M2661,269.5c-34.4,43.3-69.1,95.7-26.4,86.6c10.2-2.2,18.9-6.6,26.4-12.6V269.5z"/>
</svg>
